<?xml version="1.0" encoding="utf-8"?>
<!-- Uploaded to: SVG Repo, www.svgrepo.com, Generator: SVG Repo Mixer Tools -->
<svg width="800px" height="800px" viewBox="0 0 1024 1024" class="icon"  version="1.1" xmlns="http://www.w3.org/2000/svg"><path d="M304 592h416l104 296h-624L304 592z m328 128c12.8 0 24-11.2 24-24s-11.2-24-24-24-24 11.2-24 24 11.2 24 24 24z m-256-48c12.8 0 24-11.2 24-24s-11.2-24-24-24-24 11.2-24 24 11.2 24 24 24z m136 112c9.6 0 16-6.4 16-16s-6.4-16-16-16-16 6.4-16 16 6.4 16 16 16z m8-256c-12.8 0-24-11.2-24-24s11.2-24 24-24 24 11.2 24 24-11.2 24-24 24z m104 48c-9.6 0-16-6.4-16-16s6.4-16 16-16 16 6.4 16 16-6.4 16-16 16z" fill="#2F4BFF" /><path d="M622.4 112H401.6c9.6 76.8 14.4 142.4 14.4 176 0 35.2-65.6 248-200 592h593.6C673.6 536 608 323.2 608 288c0-33.6 4.8-99.2 14.4-176z m32 0c-9.6 78.4-14.4 144-14.4 176 0 28.8 67.2 248 198.4 580.8 1.6 3.2 1.6 8 1.6 11.2 0 17.6-14.4 32-32 32H214.4c-4.8 0-8 0-11.2-1.6-16-6.4-24-25.6-17.6-41.6C316.8 536 384 316.8 384 288c0-32-4.8-97.6-14.4-176H368c-9.6 0-16-6.4-16-16s6.4-16 16-16h288c9.6 0 16 6.4 16 16s-6.4 16-17.6 16c1.6 0 0 0 0 0z" fill="#08135B" /><path d="M424 480h48c4.8 0 8 3.2 8 8s-3.2 8-8 8H432v48h24c4.8 0 8 3.2 8 8s-3.2 8-8 8H432v48h40c4.8 0 8 3.2 8 8s-3.2 8-8 8H432v48h24c4.8 0 8 3.2 8 8s-3.2 8-8 8H432v48h40c4.8 0 8 3.2 8 8s-3.2 8-8 8H416V480h8z" fill="#08135B" /></svg>